<svg class="ionicon" width="700pt" height="700pt" viewBox="0 0 700 700" xmlns="http://www.w3.org/2000/svg">
<path d="m316.61 33.602c-1.4648 0-2.9297 0.29297-4.2852 0.85156-1.3555 0.5625-2.5977 1.3906-3.6328 2.4297-1.0352 1.0352-1.8672 2.2773-2.4258 3.6328-0.5625 1.3555-0.85156 2.8203-0.85156 4.2852v116.57h-122.36c-1.4648 0-2.9297 0.29297-4.2852 0.85156-1.3555 0.5625-2.5977 1.3906-3.6328 2.4297-1.0352 1.0352-1.8672 2.2773-2.4258 3.6328-0.5625 1.3555-0.85156 2.8203-0.85156 4.2852v66.785c0 1.4648 0.29297 2.9297 0.85156 4.2852 0.5625 1.3555 1.3906 2.5977 2.4258 3.6328 1.0352 1.0352 2.2773 1.8672 3.6328 2.4297s2.8203 0.85156 4.2852 0.85156h122.36v264.64c0 1.4648 0.29297 2.9297 0.85156 4.2852 0.5625 1.3555 1.3906 2.5977 2.4258 3.6328 1.0352 1.0352 2.2773 1.8672 3.6328 2.4258 1.3555 0.5625 2.8203 0.85156 4.2852 0.85156h66.781c1.4648 0 2.9297-0.29297 4.2852-0.85156 1.3555-0.5625 2.5977-1.3906 3.6328-2.4297 1.0352-1.0352 1.8672-2.2773 2.4258-3.6328 0.5625-1.3555 0.85156-2.8203 0.85156-4.2852v-264.64h122.36c1.4648 0 2.9297-0.29297 4.2852-0.85156 1.3555-0.5625 2.5977-1.3906 3.6328-2.4297 1.0352-1.0352 1.8672-2.2773 2.4258-3.6328 0.5625-1.3555 0.85156-2.8203 0.85156-4.2852v-66.785c0-1.4648-0.29297-2.9336-0.85156-4.2852-0.5625-1.3555-1.3906-2.5977-2.4258-3.6328-1.0352-1.0352-2.2773-1.8672-3.6328-2.4297s-2.8203-0.85156-4.2852-0.85156h-122.36v-116.57c0-1.4648-0.29297-2.9336-0.85156-4.2852-0.5625-1.3555-1.3906-2.5977-2.4258-3.6328s-2.2773-1.8672-3.6328-2.4297-2.8203-0.85156-4.2852-0.85156z"/>
</svg>
